# AST/ASF file generated using VICON BodyLanguage
# -----------------------------------------------
:version 1.10
:name VICON
:units
  mass 1.0
  length 0.45
  angle deg
:documentation
   .ast/.asf automatically generated from VICON data using
   VICON BodyBuilder and BodyLanguage model FoxedUp or BRILLIANT.MOD
:root
   order TX TY TZ RX RY RZ
   axis XYZ
   position 0 0 0  
   orientation 0 0 0 
:bonedata
  begin
     id 1 
     name lhipjoint
     direction 0.63403 -0.759788 0.143974 
     length 2.51904 
     axis 0 0 0  XYZ
  end
  begin
     id 2 
     name lfemur
     direction 0.34202 -0.939693 0  
     length 7.42313  
     axis 0 0 20  XYZ
    dof rx ry rz
    limits (-160.0 20.0)
           (-70.0 70.0)
           (-60.0 70.0)
  end
  begin
     id 3 
     name ltibia
     direction 0.34202 -0.939693 0   
     length 8.10141   
     axis 0 0 20   XYZ
    dof rx
    limits (-10.0 170.0)
  end
  begin
     id 4 
     name lfoot
     direction 0.0927455 -0.254816 0.962532   
     length 2.14078   
     axis -90 7.62852e-016 20   XYZ
    dof rx rz
    limits (-45.0 90.0)
           (-70.0 20.0)
  end
  begin
     id 5 
     name ltoes
     direction 1.53556e-011 -4.21949e-011 1   
     length 1.07182   
     axis -90 7.62852e-016 20   XYZ
    dof rx
    limits (-90.0 20.0)
  end
  begin
     id 6 
     name rhipjoint
     direction -0.659892 -0.738223 0.139888   
     length 2.59263  
     axis 0 0 0  XYZ 
  end
  begin
     id 7 
     name rfemur
     direction -0.34202 -0.939693 0   
     length 7.58575   
     axis 0 0 -20   XYZ
    dof rx ry rz
    limits (-160.0 20.0)
           (-70.0 70.0)
           (-70.0 60.0)
  end
  begin
     id 8 
     name rtibia
     direction -0.34202 -0.939693 0   
     length 8.19358   
     axis 0 0 -20   XYZ
    dof rx
    limits (-10.0 170.0)
 end
 begin
     id 9 
     name rfoot
     direction -0.0856543 -0.235333 0.968133   
     length 2.13415  
     axis -90 -7.62852e-016 -20   XYZ
    dof rx rz
    limits (-45.0 90.0)
           (-20.0 70.0)
  end
  begin
     id 10 
     name rtoes
     direction -1.53551e-011 -4.21811e-011 1   
     length 1.07055   
     axis -90 -7.62852e-016 -20   XYZ
    dof rx
    limits (-90.0 20.0)
  end
  begin
     id 11 
     name lowerback
     direction 0.025219 0.998394 -0.0507326   
     length 1.91844   
     axis 0 0 0   XYZ
    dof rx ry rz
    limits (-20.0 45.0)
           (-30.0 30.0)
           (-30.0 30.0)
  end
  begin
     id 12 
     name upperback
     direction 0.0213103 0.99967 -0.0143101   
     length 1.92246   
     axis 0 0 0   XYZ
    dof rx ry rz
    limits (-20.0 45.0)
           (-30.0 30.0)
           (-30.0 30.0)
  end
  begin
     id 13 
     name thorax
     direction 0.00920974 0.99991 0.00971518   
     length 1.92239   
     axis 0 0 0   XYZ
    dof rx ry rz
    limits (-20.0 45.0)
           (-30.0 30.0)
           (-30.0 30.0)
  end
  begin
     id 14 
     name lowerneck
     direction 0.0598257 0.997249 0.0437612   
     length 3.13679   
     axis 0 0 0   XYZ
    dof rx ry rz
    limits (-20.0 45.0)
           (-30.0 30.0)
           (-30.0 30.0)
  end
  begin
     id 15 
     name upperneck
     direction -0.035342 0.999338 0.00863891   
     length 3.16283   
     axis 0 0 0   XYZ
    dof rx ry rz
    limits (-20.0 45.0)
           (-30.0 30.0)
           (-30.0 30.0)
  end
  begin
     id 16
     name head
     direction 0.37144 0.811566 0.450991  
     length 1.2838  
     axis 0 0 0   XYZ
    dof rx ry rz
    limits (-20.0 45.0)
           (-30.0 30.0)
           (-30.0 30.0)
  end
  begin
     id 17 
     name lclavicle
     direction 0.961094 0.274654 -0.0293862  
     length 3.63466  
     axis 0 0 0   XYZ
    dof ry rz
    limits (-20.0 10.0)
           (0.0 20.0)
  end
  begin
     id 18 
     name lhumerus
     direction 1 -4.48963e-011 1.10303e-027   
     length 5.12842   
     axis 180 -30 -90   XYZ
    dof rx ry rz
    limits (-60.0 90.0)
           (-90.0 90.0)
           (-90.0 90.0)
  end
  begin
     id 19
     name lradius
     direction 1 -4.48968e-011 4.13199e-027   
     length 3.47396   
     axis 180 -30 -90   XYZ
    dof rx
    limits (-10.0 170.0)
  end
  begin
     id 20
     name lwrist
     direction 1 -4.48948e-011 9.12708e-027   
     length 1.73698   
     axis -6.84618e-015 90 90   XYZ
    dof ry
    limits (-180.0 0.0)
 end
  begin
     id 21 
     name lhand
     direction 1 -4.49057e-011 1.82749e-026   
     length 0.728607   
     axis -1.16502e-014 90 90   XYZ
    dof rx rz
    limits (-90.0 90.0)
           (-45.0 45.0)
  end
  begin
     id 22 
     name lfingers
     direction 1 -4.48912e-011 3.64949e-026   
     length 0.587422   
     axis -2.33008e-014 90 90   XYZ
    dof rx
    limits (0.0 90.0)
  end
  begin
     id 23
     name lthumb
     direction 0.707107 -6.34995e-011 0.707107   
     length 0.843424   
     axis -90 45 5.69224e-014   XYZ
    dof rx rz
    limits (-45.0 45.0)
           (-45.0 45.0)
  end
  begin
     id 24 
     name rclavicle
     direction -0.90514 0.421881 -0.0523369   
     length 3.57139  
     axis 0 0 0   XYZ 
    dof ry rz
    limits (-10.0 20.0)
           (-20.0 0.0)
  end
  begin
     id 25 
     name rhumerus
     direction -1 -4.48954e-011 -1.76662e-027  
     length 5.48477   
     axis 180 30 90   XYZ
    dof rx ry rz
    limits (-90.0 60.0)
           (-90.0 90.0)
           (-90.0 90.0)
  end
  begin
     id 26 
     name rradius
     direction -1 -4.48982e-011 1.26841e-027   
     length 3.47856   
     axis 180 30 90   XYZ
    dof rx
    limits (-10.0 170.0)
  end
  begin
     id 27 
     name rwrist
     direction -1 -4.49037e-011 9.13554e-027   
     length 1.73928   
     axis -6.84618e-015 -90 -90   XYZ
    dof ry
    limits (-180.0 0.0)
  end
  begin
     id 28
     name rhand
     direction -1 -4.48871e-011 1.82397e-026   
     length 0.709974   
     axis -1.16502e-014 -90 -90   XYZ
    dof rx rz
    limits (-90.0 90.0)
           (-45.0 45.0)
  end
  begin
     id 29
     name rfingers
     direction -1 -4.48994e-011 3.65258e-026   
     length 0.572399   
     axis -2.33008e-014 -90 -90   XYZ
    dof rx
    limits (0.0 90.0)
  end
  begin
     id 30
     name rthumb
     direction -0.707107 -6.34861e-011 0.707107   
     length 0.821855   
     axis -90 -45 -5.69224e-014   XYZ
    dof rx rz
    limits (-45.0 45.0)
           (-45.0 45.0)
  end
:hierarchy
  begin
    root lhipjoint rhipjoint lowerback
    lhipjoint lfemur
    lfemur ltibia
    ltibia lfoot
    lfoot ltoes
    rhipjoint rfemur
    rfemur rtibia
    rtibia rfoot
    rfoot rtoes
    lowerback upperback
    upperback thorax
    thorax lowerneck lclavicle rclavicle
    lowerneck upperneck
    upperneck head
    lclavicle lhumerus
    lhumerus lradius
    lradius lwrist
    lwrist lhand lthumb
    lhand lfingers
    rclavicle rhumerus
    rhumerus rradius
    rradius rwrist
    rwrist rhand rthumb
    rhand rfingers
  end

#!OML:ASF F:\VICON\USERDATA\INSTALL\Justin1\Justin1.ASF
:FULLY-SPECIFIED
:DEGREES
591
root 0.180976 18.2374 -4.3199 2.63895 5.13147 -3.83657
lowerback 1.49815 -0.764196 2.7143
upperback -1.68388 -0.860013 3.59048
thorax -2.55733 -0.442956 2.20373
lowerneck -14.6162 -2.88776 -4.41696
upperneck 20.935 -2.14582 -3.38337
head 9.01328 -1.72295 -0.676889
rclavicle -9.84605e-016 5.00937e-014
rhumerus -2.76728 22.6293 -66.2762
rradius 92.6674
rwrist 28.7711
rhand -23.8131 14.5047
rfingers 7.12502
rthumb 2.65786 -15.4585
lclavicle -9.84605e-016 5.00937e-014
lhumerus -1.73361 -25.8589 78.5092
lradius 74.3538
lwrist -40.9164
lhand -8.59453 17.7546
lfingers 7.12502
lthumb 17.3367 47.0014
rfemur -15.72 7.01453 27.5638
rtibia 32.5637
rfoot -16.9544 -13.6441
rtoes 28.3086
lfemur -13.7983 -9.67022 -17.4249
ltibia 29.8065
lfoot -15.6849 11.6955
ltoes 3.56227
592
root 0.183057 18.2328 -4.3208 2.6337 5.0719 -3.84701
lowerback 1.48776 -0.817764 2.77933
upperback -1.65832 -0.932097 3.56728
thorax -2.52528 -0.480242 2.1454
lowerneck -14.7726 -2.81034 -4.2444
upperneck 20.9739 -2.04706 -3.48156
head 9.05115 -1.67578 -0.729986
rclavicle 2.84666e-014 -7.15625e-015
rhumerus -2.25115 22.4248 -66.1642
rradius 93.4917
rwrist 28.778
rhand -24.5811 14.6514
rfingers 7.12502
rthumb 1.91611 -15.3197
lclavicle 2.84666e-014 -7.15625e-015
lhumerus -2.28164 -25.918 79.1332
lradius 73.598
lwrist -41.291
lhand -7.63507 17.2904
lfingers 7.12502
lthumb 18.2599 46.4534
rfemur -15.778 7.03948 27.5595
rtibia 32.5834
rfoot -17.0896 -13.7029
rtoes 27.6739
lfemur -13.7775 -9.572 -17.4276
ltibia 29.7903
lfoot -15.6729 11.6625
ltoes 3.2685
593
root 0.186225 18.2288 -4.32114 2.57458 4.95034 -3.82626
lowerback 1.56603 -0.88187 2.79319
upperback -1.62167 -1.01531 3.55425
thorax -2.53068 -0.522183 2.12817
lowerneck -14.8773 -2.69119 -4.09362
upperneck 20.9463 -1.89861 -3.54651
head 9.05733 -1.6018 -0.760206
rclavicle -1.42317e-014 1.59028e-014
rhumerus -1.67747 22.2623 -66.1089
rradius 94.2514
rwrist 28.7903
rhand -25.3193 14.9613
rfingers 7.12502
rthumb 1.20323 -15.0151
lclavicle -1.42317e-014 1.59028e-014
lhumerus -2.78247 -25.9381 79.6341
lradius 72.9474
lwrist -41.5074
lhand -7.0806 17.0586
lfingers 7.12502
lthumb 18.7933 46.1708
rfemur -15.729 7.04816 27.5246
rtibia 32.5943
rfoot -17.21 -13.5942
rtoes 28.0021
lfemur -13.6849 -9.56476 -17.4857
ltibia 29.7893
lfoot -15.6601 11.7395
ltoes 3.41341
594
root 0.189509 18.2283 -4.31969 2.57466 4.86352 -3.75982
lowerback 1.57126 -0.946941 2.75977
upperback -1.61339 -1.10438 3.5106
thorax -2.52373 -0.566496 2.10509
lowerneck -14.9452 -2.57534 -3.82952
upperneck 20.8802 -1.76424 -3.71005
head 9.0412 -1.53514 -0.84325
rclavicle 1.3946e-014 -4.77083e-015
rhumerus -1.12107 22.0842 -66.2292
rradius 95.0045
rwrist 28.8917
rhand -25.7762 15.0818
rfingers 7.12502
rthumb 0.761892 -14.8966
lclavicle 1.3946e-014 -4.77083e-015
lhumerus -3.28777 -26.0164 80.0862
lradius 72.4641
lwrist -41.2561
lhand -7.25562 17.0832
lfingers 7.12502
lthumb 18.625 46.2115
rfemur -15.7308 7.05318 27.437
rtibia 32.6301
rfoot -17.2563 -13.4896
rtoes 28.2898
lfemur -13.6307 -9.63062 -17.5775
ltibia 29.7639
lfoot -15.6892 11.8715
ltoes 3.4696
595
root 0.192743 18.2287 -4.31717 2.59405 4.80861 -3.65501
lowerback 1.52894 -1.0037 2.7065
upperback -1.61936 -1.18547 3.4322
thorax -2.50509 -0.606789 2.05613
lowerneck -14.9852 -2.48125 -3.56953
upperneck 20.8316 -1.66605 -3.84944
head 9.02661 -1.48329 -0.921604
rclavicle 2.20092e-014 -1.51076e-014
rhumerus -0.6681 21.9111 -66.4567
rradius 95.6232
rwrist 28.9672
rhand -26.0027 15.0687
rfingers 7.12502
rthumb 0.543119 -14.9104
lclavicle 2.20092e-014 -1.51076e-014
lhumerus -3.83578 -26.0872 80.5571
lradius 72.2837
lwrist -40.9829
lhand -7.34787 17.0985
lfingers 7.12502
lthumb 18.5362 46.2354
rfemur -15.7649 7.00472 27.3105
rtibia 32.6908
rfoot -17.2791 -13.4555
rtoes 28.1151
lfemur -13.5827 -9.70805 -17.7074
ltibia 29.7321
lfoot -15.7292 11.963
ltoes 3.46938
596
root 0.191696 18.2287 -4.31636 2.58518 4.67218 -3.57614
lowerback 1.59784 -1.01998 2.59744
upperback -1.62566 -1.20751 3.39593
thorax -2.54837 -0.616412 2.08219
lowerneck -15.0948 -2.42732 -3.38582
upperneck 20.7885 -1.60519 -3.97001
head 9.02844 -1.45364 -0.986725
rclavicle 9.70318e-015 6.36111e-015
rhumerus -0.283926 21.7854 -66.6493
rradius 96.06
rwrist 28.9854
rhand -26.2252 15.1878
rfingers 7.12502
rthumb 0.328216 -14.7917
lclavicle 9.70318e-015 6.36111e-015
lhumerus -4.34314 -26.1817 80.9993
lradius 72.4418
lwrist -40.867
lhand -7.24502 17.033
lfingers 7.12502
lthumb 18.6352 46.1604
rfemur -15.7857 7.01288 27.2357
rtibia 32.7603
rfoot -17.2341 -13.4385
rtoes 27.5432
lfemur -13.5211 -9.69776 -17.8043
ltibia 29.7041
lfoot -15.6857 12.0231
ltoes 3.76249
597
root 0.189059 18.2265 -4.31803 2.57233 4.53312 -3.56617
lowerback 1.71389 -0.998094 2.53727
upperback -1.60226 -1.17595 3.37519
thorax -2.58926 -0.599898 2.0954
lowerneck -15.2338 -2.42783 -3.35877
upperneck 20.6906 -1.6281 -3.88751
head 9.01999 -1.45248 -0.966441
rclavicle 1.12313e-014 1.11319e-014
rhumerus 0.00551218 21.6845 -66.801
rradius 96.4551
rwrist 28.9875
rhand -26.5471 15.0936
rfingers 7.12502
rthumb 0.0172955 -14.8861
lclavicle 1.12313e-014 1.11319e-014
lhumerus -4.67927 -26.3653 81.3894
lradius 72.792
lwrist -40.7552
lhand -7.33807 17.2029
lfingers 7.12502
lthumb 18.5457 46.3389
rfemur -15.822 7.06566 27.2365
rtibia 32.8193
rfoot -17.2216 -13.4652
rtoes 26.9271
lfemur -13.4947 -9.68087 -17.814
ltibia 29.708
lfoot -15.6335 12.0961
ltoes 3.6719
598
root 0.188066 18.2254 -4.31901 2.55883 4.50003 -3.53339
lowerback 1.80149 -0.998619 2.48487
upperback -1.57938 -1.17606 3.33216
thorax -2.61471 -0.599485 2.08182
lowerneck -15.1729 -2.46281 -3.41927
upperneck 20.4365 -1.714 -3.7137
head 8.92258 -1.47307 -0.902781
rclavicle 2.65253e-015 -1.98785e-014
rhumerus 0.123852 21.6246 -67.0105
rradius 96.7327
rwrist 28.9594
rhand -26.7794 14.9761
rfingers 7.12502
rthumb -0.207063 -15.0035
lclavicle 2.65253e-015 -1.98785e-014
lhumerus -5.0017 -26.5428 81.7627
lradius 73.2799
lwrist -40.634
lhand -7.44157 17.3693
lfingers 7.12502
lthumb 18.4461 46.5147
rfemur -15.8349 7.02167 27.198
rtibia 32.8623
rfoot -17.2207 -13.3658
rtoes 27.1037
lfemur -13.4902 -9.65518 -17.8523
ltibia 29.7423
lfoot -15.6619 12.1427
ltoes 3.2971
599
root 0.1865 18.2247 -4.32186 2.56909 4.4621 -3.54324
lowerback 1.88276 -1.0079 2.45807
upperback -1.58878 -1.18559 3.31046
thorax -2.66989 -0.604153 2.07679
lowerneck -15.0933 -2.51018 -3.46721
upperneck 20.1747 -1.81867 -3.54976
head 8.81937 -1.5026 -0.846641
rclavicle 8.3738e-015 -1.82882e-014
rhumerus 0.0993951 21.6345 -67.3257
rradius 96.7935
rwrist 28.9728
rhand -26.9721 15.0146
rfingers 7.12502
rthumb -0.393172 -14.9648
lclavicle 8.3738e-015 -1.82882e-014
lhumerus -5.19673 -26.623 82.0328
lradius 73.7959
lwrist -40.5827
lhand -7.58822 17.3471
lfingers 7.12502
lthumb 18.305 46.5058
rfemur -15.8698 6.98333 27.2063
rtibia 32.89
rfoot -17.2523 -13.2256
rtoes 27.5055
lfemur -13.5408 -9.65746 -17.8302
ltibia 29.7953
lfoot -15.7379 12.1714
ltoes 3.60823
600
root 0.182775 18.2244 -4.32518 2.67374 4.36823 -3.58091
lowerback 1.86475 -0.974443 2.42915
upperback -1.62874 -1.14124 3.30327
thorax -2.70126 -0.581715 2.08403
lowerneck -15.1271 -2.55748 -3.50461
upperneck 20.0551 -1.91076 -3.40113
head 8.78586 -1.53077 -0.799911
rclavicle 2.65253e-015 1.19271e-014
rhumerus 0.053868 21.6308 -67.6436
rradius 96.6223
rwrist 29.0996
rhand -27.1034 15.195
rfingers 7.12502
rthumb -0.519987 -14.7841
lclavicle 2.65253e-015 1.19271e-014
lhumerus -5.11131 -26.7963 82.1206
lradius 74.3219
lwrist -40.349
lhand -8.03233 17.4426
lfingers 7.12502
lthumb 17.8777 46.6408
rfemur -16.0165 7.05145 27.235
rtibia 32.9111
rfoot -17.3115 -13.1069
rtoes 28.0442
lfemur -13.6827 -9.68943 -17.7544
ltibia 29.8342
lfoot -15.7769 12.2449
ltoes 4.12895
